<svg xmlns="http://www.w3.org/2000/svg" viewBox="0 0 220 60" fill="none">
  <path d="M10 42 C18 20, 30 12, 38 22 C44 30, 36 46, 28 48 C20 50, 16 40, 22 34 C28 28, 42 30, 50 26"
    stroke="currentColor" stroke-width="2" stroke-linecap="round" stroke-linejoin="round"/>
  <path d="M52 26 C60 18, 72 16, 76 24 C80 32, 72 44, 64 46 C58 48, 56 42, 60 38 C66 32, 78 34, 88 30 C96 26, 100 20, 104 24"
    stroke="currentColor" stroke-width="2" stroke-linecap="round" stroke-linejoin="round"/>
  <path d="M106 24 C116 12, 128 14, 132 24 C136 34, 128 48, 120 50 C114 52, 110 44, 116 38 C122 32, 134 36, 142 30"
    stroke="currentColor" stroke-width="2" stroke-linecap="round" stroke-linejoin="round"/>
  <path d="M144 30 C152 18, 164 16, 170 26 C174 34, 168 46, 160 48 C152 50, 148 40, 154 34 C160 28, 172 32, 180 26 C188 20, 192 24, 196 30 C200 36, 204 44, 210 38"
    stroke="currentColor" stroke-width="2" stroke-linecap="round" stroke-linejoin="round"/>
</svg>
