<svg height="174" width="790" viewBox="0 0 790 174" xmlns="http://www.w3.org/2000/svg" version="1.2">
	<title>NEW LOGO BLUME</title>
	<style>
		.s0 { fill: #35524a } 
		.s1 { fill: #bac1ad } 
		.s2 { fill: #77a594 } 
	</style>
	<g>
		<g>
			<path d="m184.7 2.9h44.4c41 0 57.8 14.1 57.8 40.5 0 20.6-11.3 33.5-30.7 38.3v0.5c21.8 4.6 37.1 17.8 37.1 41.7 0 30.9-20.1 46.8-61.6 46.8h-47zm39.6 74c27.1 0 39.1-9.6 39.1-31.4 0-21.5-12-29.7-37-29.7h-18.2v61.1zm2.4 80.8c29 0 41.7-10.1 41.7-33.8 0-23.2-12.7-33.8-40.5-33.8h-19.6v67.6c0 0 18.4 0 18.4 0z" class="s0"></path>
			<path d="m318.7 2.1c2 0 14.7-0.4 22.3-1.6v143.5c0 13.5 0.5 24 1.7 26.7h-24z" class="s0"></path>
			<path d="m373.6 48.9c2.2 0 14.4-0.5 22.3-1.7v77.4c0 21.4 4.5 33.1 24 33.1 11.2 0 20.8-4.8 26.6-10.1v-98.7c2.1 0 14.4-0.5 22.3-1.7v89.2c0 10.8 0.2 24.9 3.1 31.4l-19.2 4.5c-2.6-3.8-4.5-8.1-5.5-14.8-6.7 8.1-18.2 16-36.4 16-26.7 0-37.2-16.8-37.2-44.3z" class="s0"></path>
			<path d="m501.9 48.9c1.4 0 13.4-0.5 21-1.7v15.6c5.8-8.4 17.3-16.8 34.3-16.8 16.6 0 25.4 7.4 30 19 5.7-8.9 18.9-19 37.4-19 26.8 0 34 19.9 34 46v52c0 13.7 0.3 24 1.7 26.7h-24v-74.6c0-22-3.3-35-21.1-35-12 0-21.3 6.7-25.6 12.5 1.2 5.7 1.7 11.9 1.7 18.7v78.3h-22.3v-74.5c0-22.1-2.9-35-20.9-35-11.3 0-19.4 5.5-24 11v98.5h-22.2c0 0 0-121.7 0-121.7z" class="s0"></path>
			<path d="m708.9 111.2c0.5 33.3 10.8 50.1 31.9 50.1 18.5 0 24-14.1 26.4-22 6.5 0 16.1 1.2 20.1 3.6-6.4 18.4-20.3 30.6-46.7 30.6-38.4 0-55.9-26.8-55.9-64.7 0-37.4 17.8-62.8 54.2-62.8 35.5 0 50.4 25.2 50.4 54.9 0 2.9 0 7.2-0.3 10.3 0 0-80.1 0-80.1 0zm57.3-11.7c0-26.9-7.4-41.5-27.3-41.5-18.5 0-28.3 13.6-29.7 41.5z" class="s0"></path>
		</g>
		<g>
			<g>
				<path d="m81.6 122v-12l27.1-23.8q2.4 4.4 4 8.6z" class="s1"></path>
				<path d="m115.6 116.3c-2.2 13.9-13.6 25.5-34 34.5v-17l33.7-29.6c0.8 4.2 0.9 8.3 0.3 12.1z" class="s2"></path>
			</g>
			<g>
				<path d="m137 59.4c0-1.3-0.5-2.5-1.4-3.3l-56-51.6c-1.7-1.6-4.2-1.6-5.9 0l-71.5 64.3c-0.9 0.8-1.5 2-1.5 3.3v95.1c0 2.4 2 4.4 4.5 4.4h76.4v-11.2c25.6-10.4 39.9-24.8 42.7-42.8 1-6.7 0.5-13.8-1.8-21.3l-1.7-5.2c-1.4-3.6-3.2-7.2-5.3-10.9l20-17.6c0.9-0.8 1.5-2 1.5-3.2zm-26.2 13.2c-2.1-3-4.3-6-6.7-9-11.4-14.1-23.6-24-24.2-24.4-1.6-1.3-3.9-1.2-5.5 0.1-33 27.1-48.4 52.4-45.7 75.2 2.9 25.3 26.8 37.2 27.8 37.7 1.6 0.8 3.5 0.6 4.9-0.6l11.4-10v21.1h-63.2v-88.7l67-60.2 49.3 45.5zm-29.1 49.4v-12l27.1-23.8q2.3 4.3 3.9 8.6zm-44.1-8.6c-2.2-19 11.2-40.9 39.7-65 5.4 4.7 17.6 16.1 26.9 30.1l-29.8 26.1c-1 0.9-1.5 2.1-1.5 3.3v21.9l-14.9 13c-5.9-3.8-18.6-13.5-20.4-29.4zm78.1 2.8c-2.2 14-13.6 25.6-34 34.5v-16.9l33.8-29.6c0.7 4.2 0.8 8.2 0.2 12z" class="s0"></path>
			</g>
		</g>
	</g>
</svg>